<svg id="Group_42" data-name="Group 42" xmlns="http://www.w3.org/2000/svg" xmlns:xlink="http://www.w3.org/1999/xlink" width="51.843" height="50.55" viewBox="0 0 51.843 50.55">
  <defs>
    <linearGradient id="linear-gradient" x1="0.5" y1="0.805" x2="0.5" y2="0.048" gradientUnits="objectBoundingBox">
      <stop offset="0" stop-color="#0090d0"/>
      <stop offset="0.15" stop-color="#0f9ad6"/>
      <stop offset="0.37" stop-color="#20a5dd"/>
      <stop offset="0.53" stop-color="#26a9e0"/>
      <stop offset="0.63" stop-color="#25a2db"/>
      <stop offset="0.77" stop-color="#238fce"/>
      <stop offset="0.94" stop-color="#2070b8"/>
      <stop offset="1" stop-color="#1f62ae"/>
    </linearGradient>
  </defs>
  <g id="logo-blue">
    <path id="Path_17" data-name="Path 17" d="M21.213,190.849l.149-.212,6.744-9.551q-.6.133-1.209.276l-6.587,9.49,14.61,14.922q.49-.091.981-.173l-14.507-14.57Zm24.894,24.557-.226.22-.222-.224-2.593-2.6q-.6.03-1.209.073l3.979,4.06,4.135-4.09q-.583-.036-1.171-.062Zm2.015-2.644c-.741-.028-1.235-.044-1.979-.044-.887,0-1.523.02-2.406.058l2.146,2.156ZM64.8,181.209q-.552-.127-1.106-.246l7.1,10.056.153.216-.189.183L56.211,205.573q.471.079.943.163L71.78,191.262Zm-1.813-.343a81.558,81.558,0,0,0-34.253.119l-6.851,9.829,14.658,14.723a58.168,58.168,0,0,1,19.047-.028L70.3,191.2Z" transform="translate(-20.133 -166.381)" fill-rule="evenodd" fill="url(#linear-gradient)"/>
    <path id="Path_18" data-name="Path 18" d="M61.476,116.968l-.272-.048-.294,2.031A84.867,84.867,0,0,1,80.847,122.1,58.64,58.64,0,0,0,61.476,116.968ZM35.76,132.783c.558.268,1.04.3,1.612.6l1.1-1.485c-1.007.246-1.958.476-2.958.76ZM44.3,164.7a47.855,47.855,0,0,1,10.046-.5l-.937-.957A58.311,58.311,0,0,0,44.3,164.7Zm25.641-8.632a57.7,57.7,0,0,1,6.222,1.682c-1.279-1.41-2.329-2.887-3.643-4.231Zm-8.92,8.821a22.789,22.789,0,0,1,3.881,1.02l.858-2.39c-1.066-.133-1.967-.238-3.038-.314Z" transform="translate(-32.27 -116.724)" fill="#244093"/>
    <path id="Path_19" data-name="Path 19" d="M22.366,142.567l.218-.062a83.867,83.867,0,0,1,45.52-.085l.218.06,2.952-8.7-.218-.068a84.062,84.062,0,0,0-25.569-3.8A84.1,84.1,0,0,0,19.646,133.8l-.216.068Z" transform="translate(-19.43 -127.096)" fill="#26a9e0"/>
    <path id="Path_20" data-name="Path 20" d="M74.684,315.468a60.663,60.663,0,0,1,16.4,2.255l2.039-6.448a60.817,60.817,0,0,0-37.074.062l2.037,6.448a60.647,60.647,0,0,1,16.6-2.317Z" transform="translate(-48.672 -269.632)" fill="#26a9e0"/>
    <path id="Path_21" data-name="Path 21" d="M71.2,204.834V204.6l.093.22Z" transform="translate(-56.86 -163.377)" fill="#231f20"/>
    <path id="Path_22" data-name="Path 22" d="M102.29,200.19v.234l.093.018Z" transform="translate(-81.686 -159.855)" fill="#231f20"/>
    <path id="Path_23" data-name="Path 23" d="M185.151,204.16l0,.242-.083-.018Z" transform="translate(-147.787 -163.025)" fill="#231f20"/>
    <path id="Path_24" data-name="Path 24" d="M166.806,201.28l0,.24-.038-.006Z" transform="translate(-133.174 -160.726)" fill="#231f20"/>
    <path id="Path_25" data-name="Path 25" d="M135.572,293.521l-.556.022a2.76,2.76,0,0,0-.016-.365c.6-.026.917-.036,1.529-.048v.367l-.556.012c.018.645.028.969.046,1.612l-.4.012C135.6,294.488,135.594,294.166,135.572,293.521Z" transform="translate(-111.714 -257.429)" fill="#fff"/>
    <path id="Path_26" data-name="Path 26" d="M143.682,293.1h.4v.76h.748v-.76h.4c0,.792,0,1.189-.016,1.981h-.4v-.854h-.743v.854h-.4C143.7,294.289,143.694,293.886,143.682,293.1Z" transform="translate(-118.637 -257.405)" fill="#fff"/>
    <path id="Path_27" data-name="Path 27" d="M153.369,293.09c.558,0,.838.016,1.4.034l-.014.365c-.393-.012-.588-.018-.979-.026v.425c.357,0,.536.012.893.024a3.184,3.184,0,0,1-.012.339c-.355-.012-.534-.018-.889-.024v.486c.393,0,.588.014.981.026a3.185,3.185,0,0,1-.014.367c-.55-.02-.824-.026-1.372-.034C153.353,294.281,153.357,293.878,153.369,293.09Z" transform="translate(-126.372 -257.397)" fill="#fff"/>
    <path id="Path_28" data-name="Path 28" d="M76.692,324.821a1.255,1.255,0,0,0-.286-.6c-.141-.155-.544-.25-.55-.27a1.754,1.754,0,0,0,.276-.4.977.977,0,0,0,.018-.524,1.209,1.209,0,0,0-.177-.449.748.748,0,0,0-.292-.254.931.931,0,0,0-.391-.087,1.932,1.932,0,0,0-.471.052c-.665.151-1,.232-1.658.4l1.007,3.927c.637-.163.955-.24,1.594-.385a1.492,1.492,0,0,0,.417-.163,1.124,1.124,0,0,0,.332-.286,1.008,1.008,0,0,0,.189-.413A1.3,1.3,0,0,0,76.692,324.821Zm-2.6-1.66.717-.169a1.032,1.032,0,0,1,.2-.024A.449.449,0,0,1,75.2,323a.352.352,0,0,1,.147.113.516.516,0,0,1,.095.218.459.459,0,0,1-.05.389.512.512,0,0,1-.308.185c-.306.071-.459.107-.764.179Zm1.852,2.031a.417.417,0,0,1-.085.185.492.492,0,0,1-.155.121.9.9,0,0,1-.2.073c-.314.07-.471.109-.784.183l-.262-1.082c.324-.079.488-.117.806-.2a.576.576,0,0,1,.419.042.566.566,0,0,1,.242.4A.645.645,0,0,1,75.949,325.191Z" transform="translate(-62.334 -280.665)" fill="#fff"/>
    <path id="Path_29" data-name="Path 29" d="M90.59,318.719q1.328-.25,2.662-.459l.111.741c-.743.111-1.116.173-1.858.308.062.343.093.514.155.854.671-.123,1.007-.177,1.68-.28l.1.685c-.665.1-1.007.157-1.66.278l.177.977c.725-.131,1.09-.2,1.813-.3l.111.741q-1.267.189-2.523.435Z" transform="translate(-76.252 -277.496)" fill="#fff"/>
    <path id="Path_30" data-name="Path 30" d="M107.77,319.292a.854.854,0,0,0,.107.336.637.637,0,0,0,.2.2.673.673,0,0,0,.254.1.949.949,0,0,0,.292,0,1.394,1.394,0,0,0,.2-.044.685.685,0,0,0,.2-.1.494.494,0,0,0,.149-.173.439.439,0,0,0,.04-.258.389.389,0,0,0-.117-.256.733.733,0,0,0-.252-.147,1.654,1.654,0,0,0-.341-.081c-.127-.018-.256-.042-.385-.066a3.479,3.479,0,0,1-.4-.091,1.28,1.28,0,0,1-.357-.167,1.007,1.007,0,0,1-.28-.288,1.122,1.122,0,0,1-.157-.459,1.173,1.173,0,0,1,.04-.554,1.146,1.146,0,0,1,.254-.421,1.266,1.266,0,0,1,.4-.282,1.644,1.644,0,0,1,.473-.133,2.037,2.037,0,0,1,.548,0,1.27,1.27,0,0,1,.484.179,1.108,1.108,0,0,1,.357.373,1.376,1.376,0,0,1,.173.584l-.748.077a.806.806,0,0,0-.1-.292.479.479,0,0,0-.171-.169.583.583,0,0,0-.23-.071,1.16,1.16,0,0,0-.266,0,.843.843,0,0,0-.185.044.475.475,0,0,0-.161.1.451.451,0,0,0-.109.159.429.429,0,0,0-.022.218.4.4,0,0,0,.064.187.357.357,0,0,0,.171.113,2.319,2.319,0,0,0,.332.085c.141.026.326.062.548.1l.171.03a1.611,1.611,0,0,1,.226.06,1.363,1.363,0,0,1,.244.115,1.061,1.061,0,0,1,.23.189,1.008,1.008,0,0,1,.179.282,1.24,1.24,0,0,1,.095.4,1.441,1.441,0,0,1-.042.522,1.142,1.142,0,0,1-.228.435,1.283,1.283,0,0,1-.4.316,1.748,1.748,0,0,1-.59.165,1.775,1.775,0,0,1-.546-.018,1.325,1.325,0,0,1-.492-.2,1.306,1.306,0,0,1-.379-.4,1.536,1.536,0,0,1-.2-.625C107.331,319.35,107.478,319.332,107.77,319.292Z" transform="translate(-89.283 -276.001)" fill="#fff"/>
    <path id="Path_31" data-name="Path 31" d="M122.818,315.99c-.425.03-.639.048-1.062.087l-.066-.746q1.469-.131,2.944-.2l.032.75c-.427.016-.639.028-1.064.052q.1,1.65.2,3.3l-.737.048Z" transform="translate(-101.086 -274.997)" fill="#fff"/>
    <path id="Path_32" data-name="Path 32" d="M148.608,316.1a1.735,1.735,0,0,0-.314-.637,1.356,1.356,0,0,0-.506-.389,1.612,1.612,0,0,0-.645-.137H145.59l.044,4.054h1.451a1.411,1.411,0,0,0,.675-.143,1.435,1.435,0,0,0,.492-.413,1.989,1.989,0,0,0,.314-.637,3.313,3.313,0,0,0,.129-.806A2.849,2.849,0,0,0,148.608,316.1Zm-.772,1.509a1.1,1.1,0,0,1-.2.373.713.713,0,0,1-.276.2.85.85,0,0,1-.316.058h-.667V315.69h.558a1.1,1.1,0,0,1,.484.1.764.764,0,0,1,.308.276,1.163,1.163,0,0,1,.159.427,2.684,2.684,0,0,1,.036.554,1.942,1.942,0,0,1-.083.562Z" transform="translate(-120.17 -274.845)" fill="#fff"/>
    <path id="Path_33" data-name="Path 33" d="M166.329,316.193a1.032,1.032,0,0,0-.175-.377.983.983,0,0,0-.308-.272,1.034,1.034,0,0,0-.427-.125c-.774-.064-1.161-.089-1.936-.129q-.1,2.015-.2,4.05c.3.014.443.024.737.042l.1-1.582.758.052a.51.51,0,0,1,.4.181.876.876,0,0,1,.123.478v.762a1.143,1.143,0,0,0,.03.218l.737.071a.664.664,0,0,1-.056-.216,2.368,2.368,0,0,1-.012-.262c0-.089,0-.177,0-.264a1.269,1.269,0,0,1,.012-.226,2.649,2.649,0,0,0,0-.306,1.187,1.187,0,0,0-.056-.288.751.751,0,0,0-.129-.238.562.562,0,0,0-.22-.159.048.048,0,0,1,0-.01.868.868,0,0,0,.457-.357,1.382,1.382,0,0,0,.189-.6A1.267,1.267,0,0,0,166.329,316.193Zm-.756.5a.615.615,0,0,1-.173.429.536.536,0,0,1-.4.1c-.336-.026-.5-.038-.84-.058.028-.455.042-.683.073-1.138.343.022.514.034.856.06a.546.546,0,0,1,.389.165.576.576,0,0,1,.1.439Z" transform="translate(-134.296 -275.124)" fill="#fff"/>
    <path id="Path_34" data-name="Path 34" d="M180.677,316.76c.314.034.471.054.788.093l-.5,4.03-.735-.087Q180.454,318.775,180.677,316.76Z" transform="translate(-147.831 -276.298)" fill="#fff"/>
    <path id="Path_35" data-name="Path 35" d="M187.742,317.69c.312.042.469.064.78.111q.542,1.449,1.022,2.92h0l.467-2.68.731.133L190,322.159l-.729-.131q-.461-1.465-.985-2.907h0l-.4,2.686-.687-.1Z" transform="translate(-153.388 -277.041)" fill="#fff"/>
    <path id="Path_36" data-name="Path 36" d="M205.266,320.79c.312.062.467.095.78.161L205.7,322.6c.679-.544,1.024-.806,1.731-1.334.387.093.58.139.965.238-.707.482-1.054.727-1.735,1.227q.449,1.362.86,2.734c-.363-.093-.544-.139-.907-.226-.226-.806-.347-1.209-.6-2.015-.216.163-.324.246-.536.4L205.2,324.9l-.727-.149Z" transform="translate(-167.187 -279.516)" fill="#fff"/>
    <path id="Path_37" data-name="Path 37" d="M74.814,319.273a1.1,1.1,0,0,1,.2-.026.486.486,0,0,1,.183.032.367.367,0,0,1,.147.113.52.52,0,0,1,.095.218v.03a.578.578,0,0,0,0-.264.516.516,0,0,0-.1-.218.352.352,0,0,0-.147-.113.449.449,0,0,0-.183-.032,1.03,1.03,0,0,0-.2.026l-.717.169.054.222Zm1.318.55a.915.915,0,0,0,.036-.4.806.806,0,0,1-.036.169,1.754,1.754,0,0,1-.276.4.843.843,0,0,0,.145.054.96.96,0,0,0,.131-.222Zm1.316,2.091-.731-3.752h-.044l.776,3.979c.838-.163,2.523-.433,2.523-.433v-.236q-1.267.2-2.523.443Zm2.976-2.418a1.289,1.289,0,0,0,.357.167,3.661,3.661,0,0,0,.4.091c.129.024.258.048.385.064a1.735,1.735,0,0,1,.341.081.729.729,0,0,1,.252.147.371.371,0,0,1,.1.2.478.478,0,0,0,.014-.179.389.389,0,0,0-.117-.256.733.733,0,0,0-.252-.147,1.656,1.656,0,0,0-.341-.081c-.127-.018-.256-.042-.385-.066a3.473,3.473,0,0,1-.4-.091,1.278,1.278,0,0,1-.357-.167,1.007,1.007,0,0,1-.28-.288,1.123,1.123,0,0,1-.157-.459v-.087a1.35,1.35,0,0,0,0,.32,1.118,1.118,0,0,0,.157.459,1.007,1.007,0,0,0,.28.3Zm-5.146,1.022c-.326.075-.49.113-.806.2l.054.222c.29-.071.453-.109.76-.177a.578.578,0,0,1,.419.042.566.566,0,0,1,.242.4v.03a.645.645,0,0,0-.01-.264.566.566,0,0,0-.242-.4.576.576,0,0,0-.417-.042Zm1.423.88a1.008,1.008,0,0,1-.189.413,1.124,1.124,0,0,1-.332.286,1.493,1.493,0,0,1-.417.163c-.639.145-.959.222-1.594.385l-1.007-3.927v.236l1.007,3.927c.637-.163.955-.24,1.594-.385a1.5,1.5,0,0,0,.417-.163,1.134,1.134,0,0,0,.332-.274,1.021,1.021,0,0,0,.189-.413,1.169,1.169,0,0,0,.018-.351,1.04,1.04,0,0,1-.018.113Zm2.742-2.954v-.236c-.741.111-1.114.173-1.856.308l.042.228c.737-.125,1.815-.29,1.815-.29Zm12.823-.6c.343.022.514.034.856.06a.546.546,0,0,1,.389.165.443.443,0,0,1,.095.236v-.032a.576.576,0,0,0-.1-.439.546.546,0,0,0-.389-.165c-.343-.026-.514-.038-.856-.06-.028.455-.044.683-.073,1.138H92.2c.026-.3.04-.512.066-.891Zm8.924.54h0v-.234l-.351,1.644.06-.048Zm-20.453.016a.386.386,0,0,1,0-.04.449.449,0,0,1,.109-.159.478.478,0,0,1,.161-.1.843.843,0,0,1,.185-.044,1.16,1.16,0,0,1,.266,0,.6.6,0,0,1,.23.073.481.481,0,0,1,.171.169.806.806,0,0,1,.1.292c.3-.032.449-.048.748-.077v-.236l-.748.077a.806.806,0,0,0-.1-.292.479.479,0,0,0-.171-.169.582.582,0,0,0-.23-.07,1.159,1.159,0,0,0-.266,0,.842.842,0,0,0-.185.044.476.476,0,0,0-.161.1.452.452,0,0,0-.109.159.429.429,0,0,0-.022.218.526.526,0,0,0,.022.068Zm8.849-.516a.767.767,0,0,1,.308.276,1.16,1.16,0,0,1,.159.427,2.487,2.487,0,0,1,.032.369V318.9a2.684,2.684,0,0,0-.036-.554,1.163,1.163,0,0,0-.159-.427.764.764,0,0,0-.308-.276,1.1,1.1,0,0,0-.484-.1H88.54v.2c.2,0,.345.028.558.03a1.1,1.1,0,0,1,.488.115Zm-11.721,2.182.04.228c.663-.119,1.612-.27,1.612-.27v-.236h0C78.86,319.887,78.528,319.942,77.865,320.063Zm17.6,1.229-.709-.085h-.026v.238l.129.012h0l.6.073.5-4.03h-.028Q95.694,319.4,95.467,321.292Zm-1.072-3.075a1.382,1.382,0,0,1-.189.6.868.868,0,0,1-.457.357.049.049,0,0,0,0,.01.567.567,0,0,1,.189.131.82.82,0,0,0,.27-.264,1.38,1.38,0,0,0,.189-.6,1.337,1.337,0,0,0,0-.248A.045.045,0,0,1,94.395,318.217Zm5.259-.143q-.351,1.88-.7,3.758l-.729-.131q-.461-1.465-.985-2.907h-.01l-.4,2.686-.655-.095h-.032l-.038.226h.034l.687.1.4-2.684h.01q.524,1.443.985,2.907c.292.05.439.077.729.131l.746-3.985Zm1.5,2.347c-.216.163-.324.246-.536.4l-.272,1.277-.683-.141h0l-.044-.01-.044.228.095.018.677.139.272-1.277c.214-.165.32-.248.536-.4.254.806.373,1.209.6,2.015.363.087.544.131.907.226v-.232c-.363-.093-.544-.139-.907-.226-.222-.81-.349-1.213-.6-2.015Zm-18.44.441a1.283,1.283,0,0,1-.4.316,1.748,1.748,0,0,1-.59.165,1.775,1.775,0,0,1-.546-.018,1.325,1.325,0,0,1-.492-.2,1.306,1.306,0,0,1-.379-.4,1.535,1.535,0,0,1-.2-.625v.236a1.531,1.531,0,0,0,.2.625,1.3,1.3,0,0,0,.379.4,1.318,1.318,0,0,0,.492.2,1.788,1.788,0,0,0,.546.018,1.767,1.767,0,0,0,.59-.165,1.29,1.29,0,0,0,.4-.316,1.137,1.137,0,0,0,.228-.435,1.435,1.435,0,0,0,.044-.484,1.37,1.37,0,0,1-.044.25,1.143,1.143,0,0,1-.226.435Zm19.087-.941.06.189c.639-.469.989-.717,1.674-1.183v-.234c-.705.482-1.052.727-1.733,1.227Zm-7.6,1.227h0l-.735-.069a1.142,1.142,0,0,1-.03-.218v.234a1.145,1.145,0,0,0,.03.216l.737.071a.625.625,0,0,1,0-.234ZM83,317.794l-.046-.514h-.02l.066.75c.417-.038.669-.058,1.08-.089l-.016-.232C83.641,317.737,83.43,317.756,83,317.794ZM93.43,320.1a.876.876,0,0,0-.123-.478.51.51,0,0,0-.4-.181l-.758-.052-.1,1.582c-.284-.018-.431-.026-.7-.04h-.034l-.012.218h.034c.3.016.419.036.715.056l.1-1.582.758.052a.51.51,0,0,1,.4.181.872.872,0,0,1,.123.474,2.251,2.251,0,0,0,0-.232Zm-9.1.9H84.3l.016.232h.026c.266-.02.359-.024.592-.036h.123l-.018-.238Zm.518-3.345.014.23c.4-.022.641-.03,1.052-.048v-.234c-.427.02-.641.02-1.062.05Zm5.881,2.015a1.989,1.989,0,0,1-.314.637,1.434,1.434,0,0,1-.492.413,1.41,1.41,0,0,1-.675.143H87.8v.224h.024c.574,0,.852,0,1.429.01a1.372,1.372,0,0,0,1.167-.556,1.987,1.987,0,0,0,.314-.635,3.323,3.323,0,0,0,.129-.806v-.236a3.312,3.312,0,0,1-.131.8Z" transform="translate(-62.334 -276.713)" fill="#222"/>
    <path id="Path_38" data-name="Path 38" d="M36.915,152.22a.947.947,0,0,0-.222-.343,1.226,1.226,0,0,0-.343-.238,1.331,1.331,0,0,0-.423-.117,1.41,1.41,0,0,0-.461.028,1.561,1.561,0,0,0-.685.318,1.342,1.342,0,0,0-.381.524,1.773,1.773,0,0,0-.125.651,2.839,2.839,0,0,0,.081.7,2.7,2.7,0,0,0,.24.635,1.813,1.813,0,0,0,.4.51,1.368,1.368,0,0,0,.558.3,1.505,1.505,0,0,0,.727,0,1.171,1.171,0,0,0,.794-.524,1.568,1.568,0,0,0,.2-.951c.476-.1.713-.147,1.191-.24a2.76,2.76,0,0,1-.062.961,2.283,2.283,0,0,1-.369.806,2.319,2.319,0,0,1-.645.594,2.806,2.806,0,0,1-.889.355,2.944,2.944,0,0,1-1.177.042,2.607,2.607,0,0,1-.987-.395,2.716,2.716,0,0,1-.752-.745,3.375,3.375,0,0,1-.556-2.184,2.635,2.635,0,0,1,.324-1.034,2.543,2.543,0,0,1,.739-.806,3.31,3.31,0,0,1,2.077-.564,2.494,2.494,0,0,1,.838.214,2.055,2.055,0,0,1,.675.486,2.1,2.1,0,0,1,.435.776C37.651,152.071,37.4,152.119,36.915,152.22Z" transform="translate(-30.282 -143.533)" fill="#fff"/>
    <path id="Path_39" data-name="Path 39" d="M62.208,148.316a3.252,3.252,0,0,1-.018-1.155,2.638,2.638,0,0,1,.389-1.007,2.533,2.533,0,0,1,.786-.762,3.347,3.347,0,0,1,2.418-.379,2.529,2.529,0,0,1,.969.482,2.636,2.636,0,0,1,.677.842,3.391,3.391,0,0,1,.294,2.237,2.722,2.722,0,0,1-.421.971,2.6,2.6,0,0,1-.768.719,3.193,3.193,0,0,1-2.279.359,2.6,2.6,0,0,1-.953-.449,2.722,2.722,0,0,1-.7-.794A3.254,3.254,0,0,1,62.208,148.316Zm1.241-.226a2.706,2.706,0,0,0,.2.649,1.813,1.813,0,0,0,.363.534,1.364,1.364,0,0,0,.536.334,1.7,1.7,0,0,0,1.4-.228,1.368,1.368,0,0,0,.4-.484,1.814,1.814,0,0,0,.179-.621,2.714,2.714,0,0,0-.01-.677,2.859,2.859,0,0,0-.181-.681,1.779,1.779,0,0,0-.347-.56,1.34,1.34,0,0,0-.546-.349,1.767,1.767,0,0,0-1.455.228,1.338,1.338,0,0,0-.4.5,1.775,1.775,0,0,0-.165.641A2.847,2.847,0,0,0,63.449,148.09Z" transform="translate(-53.54 -139.093)" fill="#fff"/>
    <path id="Path_40" data-name="Path 40" d="M92.71,142.661c.516-.06.772-.089,1.288-.141l.455,4.453c1.088-.111,1.634-.159,2.724-.238l.073,1.007c-1.566.113-2.347.185-3.907.367C93.089,145.935,92.97,144.843,92.71,142.661Z" transform="translate(-77.945 -137.165)" fill="#fff"/>
    <path id="Path_41" data-name="Path 41" d="M116.89,140.475c1.007-.064,1.521-.091,2.535-.129a3.115,3.115,0,0,1,1.064.135,2.252,2.252,0,0,1,.856.49,2.281,2.281,0,0,1,.566.838,3.244,3.244,0,0,1,.2,1.191,3.731,3.731,0,0,1-.149,1.108,2.474,2.474,0,0,1-.463.883,2.265,2.265,0,0,1-.776.6,2.762,2.762,0,0,1-1.1.246c-.955.036-1.433.06-2.388.121C117.1,143.774,117.029,142.678,116.89,140.475Zm1.517,4.4c.439-.022.659-.032,1.1-.048a1.642,1.642,0,0,0,.516-.1,1.158,1.158,0,0,0,.439-.294,1.423,1.423,0,0,0,.3-.52,2.192,2.192,0,0,0,.1-.772,3.059,3.059,0,0,0-.1-.748,1.447,1.447,0,0,0-.294-.566,1.225,1.225,0,0,0-.536-.339,2.126,2.126,0,0,0-.806-.1l-.913.042c.087,1.38.121,2.071.191,3.456Z" transform="translate(-97.253 -135.427)" fill="#fff"/>
    <path id="Path_42" data-name="Path 42" d="M147.284,140.09c.806,0,1.221,0,2.035.024a2.388,2.388,0,0,1,2.561,2.841,2.871,2.871,0,0,1-.752,2,2.69,2.69,0,0,1-1.932.645c-.768-.016-1.15-.022-1.916-.022C147.28,143.384,147.282,142.288,147.284,140.09Zm.526,5.037c.453,0,.679,0,1.13.014a3.865,3.865,0,0,0,1.038-.1,1.7,1.7,0,0,0,.729-.379,1.676,1.676,0,0,0,.447-.7,3.637,3.637,0,0,0,.181-1.046,3.53,3.53,0,0,0-.091-1.06,1.612,1.612,0,0,0-.4-.731,1.731,1.731,0,0,0-.733-.429,3.9,3.9,0,0,0-1.082-.155c-.476,0-.713-.012-1.189-.016-.01,1.85-.01,2.768-.028,4.61Z" transform="translate(-121.52 -135.225)" fill="#fff"/>
    <path id="Path_43" data-name="Path 43" d="M173.887,140.95c1.076.064,1.612.1,2.69.2a2.658,2.658,0,0,1,.677.147,1.682,1.682,0,0,1,.54.312,1.245,1.245,0,0,1,.336.484,1.36,1.36,0,0,1,.073.653,1.5,1.5,0,0,1-.377.872,1.308,1.308,0,0,1-.88.4v.016a1.286,1.286,0,0,1,.447.187.908.908,0,0,1,.27.294,1.066,1.066,0,0,1,.127.389,2.582,2.582,0,0,1,.018.461c0,.093-.012.2-.02.339s-.012.268-.012.4a2.49,2.49,0,0,0,.032.391.736.736,0,0,0,.1.294l-.58-.062a.671.671,0,0,1-.054-.2,2.111,2.111,0,0,1-.02-.234v-.437c0-.187.012-.383,0-.578a1.552,1.552,0,0,0-.1-.532.909.909,0,0,0-.3-.4,1.032,1.032,0,0,0-.588-.177c-.82-.073-1.231-.1-2.053-.159l-.161,2.432-.528-.034C173.687,144.238,173.754,143.142,173.887,140.95Zm.385,2.629c.806.054,1.209.085,2.031.157a1.547,1.547,0,0,0,.478-.03,1.209,1.209,0,0,0,.4-.173,1.054,1.054,0,0,0,.3-.306.971.971,0,0,0,.147-.437,1.034,1.034,0,0,0-.232-.828,1.332,1.332,0,0,0-.915-.379c-.83-.075-1.247-.107-2.079-.161Z" transform="translate(-142.481 -135.912)" fill="#fff"/>
    <path id="Path_44" data-name="Path 44" d="M200.121,143.41l.558.069c-.274,2.18-.4,3.268-.685,5.44l-.524-.064C199.728,146.682,199.859,145.592,200.121,143.41Z" transform="translate(-163.194 -137.876)" fill="#fff"/>
    <path id="Path_45" data-name="Path 45" d="M208.494,144.55l.623.089q1.354,2.525,2.559,5.126h.016l.836-4.57.554.1-1.022,5.4-.582-.109q-1.187-2.6-2.531-5.12h-.016c-.266,1.84-.4,2.758-.667,4.6l-.524-.075C208.04,147.812,208.2,146.726,208.494,144.55Z" transform="translate(-169.798 -138.786)" fill="#fff"/>
    <path id="Path_46" data-name="Path 46" d="M235.68,149.41l.552.113-.6,2.891c1.545-.885,2.337-1.31,3.959-2.128l.741.185c-1.251.617-1.866.937-3.075,1.594.772,1.5,1.136,2.247,1.83,3.756l-.667-.169c-.625-1.334-.953-2-1.642-3.323-.516.286-.772.431-1.279.723l-.385,1.844-.52-.107Z" transform="translate(-191.238 -142.667)" fill="#fff"/>
    <path id="Path_47" data-name="Path 47" d="M40.86,146.328v-.022a2.853,2.853,0,0,1-.036-.7,1.785,1.785,0,0,1,.165-.641,1.348,1.348,0,0,1,.413-.5,1.769,1.769,0,0,1,1.457-.226,1.342,1.342,0,0,1,.546.349,1.783,1.783,0,0,1,.355.558c.028.071.048.143.073.216a2.841,2.841,0,0,0-.155-.55,1.779,1.779,0,0,0-.355-.572,1.34,1.34,0,0,0-.546-.349,1.767,1.767,0,0,0-1.455.228,1.338,1.338,0,0,0-.4.5,1.775,1.775,0,0,0-.165.641,2.847,2.847,0,0,0,.036.7A2.747,2.747,0,0,0,40.86,146.328Zm39.177-1.209-.083-.334c-1.251.617-1.866.937-3.075,1.594l.153.3c1-.544,2-1.058,3.014-1.564Zm-40.9,2.142h0v-.01h0a2.187,2.187,0,0,0-.083-.334,2.76,2.76,0,0,1-.062.961,2.283,2.283,0,0,1-.369.806,2.319,2.319,0,0,1-.645.594,2.806,2.806,0,0,1-.889.355,2.944,2.944,0,0,1-1.177.042,2.607,2.607,0,0,1-.985-.4,2.716,2.716,0,0,1-.752-.746,3.224,3.224,0,0,1-.421-.9c.012.066.026.131.042.2a3.244,3.244,0,0,0,.461,1.034,2.716,2.716,0,0,0,.754.735,2.6,2.6,0,0,0,.983.387,2.938,2.938,0,0,0,1.177-.042,2.8,2.8,0,0,0,.889-.355,2.313,2.313,0,0,0,.643-.594,2.287,2.287,0,0,0,.371-.806,2.748,2.748,0,0,0,.062-.939Zm12.95-.834-.149-3.121c.365-.018.548-.026.913-.04a2.126,2.126,0,0,1,.806.1,1.209,1.209,0,0,1,.526.351,1.4,1.4,0,0,1,.254.449c-.014-.073-.024-.149-.044-.218a1.447,1.447,0,0,0-.294-.566,1.225,1.225,0,0,0-.548-.351,2.126,2.126,0,0,0-.806-.1l-.913.042c.071,1.382.1,2.073.175,3.456ZM35,147.366a2.821,2.821,0,0,1-.054-.544,1.781,1.781,0,0,1,.125-.651,1.334,1.334,0,0,1,.381-.524,1.558,1.558,0,0,1,.685-.318,1.39,1.39,0,0,1,.461-.026,1.334,1.334,0,0,1,.423.117,1.225,1.225,0,0,1,.343.238.917.917,0,0,1,.2.349c.484-.1.733-.157,1.209-.252a1.471,1.471,0,0,0-.069-.332c-.48.095-.723.143-1.209.244a.947.947,0,0,0-.222-.343,1.225,1.225,0,0,0-.343-.238,1.33,1.33,0,0,0-.423-.117,1.411,1.411,0,0,0-.461.028,1.561,1.561,0,0,0-.685.318,1.342,1.342,0,0,0-.381.524,1.773,1.773,0,0,0-.125.651,2.839,2.839,0,0,0,.081.7c.022.058.042.117.062.175Zm12.426-.586q-.2-2.057-.421-4.114l-.079-.324h0l.455,4.453Zm28.523-2.619-.085-.324-.6,2.891.173-.1q.26-1.235.516-2.464Zm-30.888.909c.016.083.032.165.042.252a3.258,3.258,0,0,1-.05,1.13,2.722,2.722,0,0,1-.421.971,2.6,2.6,0,0,1-.768.719,3.193,3.193,0,0,1-2.279.359,2.6,2.6,0,0,1-.953-.449,2.722,2.722,0,0,1-.7-.79,3.176,3.176,0,0,1-.308-.717,3.254,3.254,0,0,0,.391,1.052,2.722,2.722,0,0,0,.7.794,2.607,2.607,0,0,0,.951.447,3.2,3.2,0,0,0,2.283-.367,2.6,2.6,0,0,0,.768-.719,2.726,2.726,0,0,0,.421-.971,3.256,3.256,0,0,0,.05-1.13,3.5,3.5,0,0,0-.125-.576Zm12.214-2.442c.476,0,.713,0,1.189.016a3.919,3.919,0,0,1,1.082.153,1.729,1.729,0,0,1,.733.431,1.57,1.57,0,0,1,.365.608c-.014-.079-.028-.153-.048-.224a1.612,1.612,0,0,0-.4-.731,1.731,1.731,0,0,0-.733-.429,3.9,3.9,0,0,0-1.082-.155c-.476,0-.713-.012-1.189-.016-.012,1.84-.018,2.76-.03,4.6h.085Q57.264,144.752,57.278,142.627Zm5.615.2c.832.054,1.247.089,2.077.161a1.338,1.338,0,0,1,.915.381.921.921,0,0,1,.151.248.959.959,0,0,0-.236-.582,1.332,1.332,0,0,0-.915-.379c-.83-.075-1.247-.107-2.079-.161l-.143,2.146h.107Zm4.779,5.2-.4-.05h0l-.123-.016v.326l.173.018.445.054.685-5.44-.085-.334c-.284,2.17-.421,3.264-.7,5.438Zm-1.946-.224a.671.671,0,0,1-.054-.2v-.083a.532.532,0,0,0,0,.1,2.2,2.2,0,0,0,.073.343.4.4,0,0,0,.091.173l.56.058a1.189,1.189,0,0,1-.089-.334Zm8.428-4.314-1.022,5.4-.582-.109q-1.187-2.6-2.531-5.12H70c-.266,1.84-.4,2.758-.667,4.6l-.4-.056h0l-.129-.018-.038.32.181.022.465.066.667-4.6H70.1q1.328,2.531,2.531,5.12l.582.109,1.022-5.394Zm-7.556-.018a1.588,1.588,0,0,1,0,.339,1.5,1.5,0,0,1-.377.872,1.308,1.308,0,0,1-.881.4v.016a1.286,1.286,0,0,1,.447.187c.016.012.028.026.042.036a1.183,1.183,0,0,0,.476-.312,1.505,1.505,0,0,0,.379-.872,1.36,1.36,0,0,0-.075-.653Zm11.455,6.488c-.625-1.334-.953-2-1.642-3.323-.516.286-.772.431-1.279.723l-.385,1.844-.375-.077h-.016l-.129-.026h0l-.062.31.228.042.441.091.385-1.846c.508-.294.764-.439,1.279-.725.564,1.1,1.028,2.172,1.558,3.29.268.066.484.135.752.2l-.083-.334ZM61.233,144.7a2.871,2.871,0,0,1-.752,2,2.69,2.69,0,0,1-1.932.645c-.768-.016-1.15-.022-1.916-.022h0v.334h.457c.54,0,.915,0,1.545.022a2.679,2.679,0,0,0,1.932-.645,2.865,2.865,0,0,0,.752-2.015,3.641,3.641,0,0,0-.137-1.283A4.108,4.108,0,0,1,61.233,144.7Zm-5.495-.147a3.732,3.732,0,0,1-.149,1.108,2.474,2.474,0,0,1-.463.883,2.265,2.265,0,0,1-.776.6,2.762,2.762,0,0,1-1.1.246c-.935.034-1.41.058-2.327.117h-.06l.03.339h.145q1.146-.073,2.295-.115a2.746,2.746,0,0,0,1.1-.246,2.249,2.249,0,0,0,.776-.6,2.472,2.472,0,0,0,.465-.883,3.744,3.744,0,0,0,.149-1.11,3.465,3.465,0,0,0-.143-1,3.865,3.865,0,0,1,.058.659Zm10.441,2.216c0,.133-.012.268-.012.4a1.333,1.333,0,0,0,.016.256c0-.127.026-.266.034-.385s.028-.248.032-.338a3.628,3.628,0,0,0,.016-.4,1.457,1.457,0,0,0-.125-.55.177.177,0,0,0-.026-.036,1.114,1.114,0,0,1,.066.252,2.582,2.582,0,0,1,.018.461c-.006.1-.012.212-.02.345Zm-16.073-.23.073,1.007c-1.549.111-2.333.185-3.865.363h-.04l.04.334h.04q1.948-.226,3.907-.367c-.028-.4-.042-.6-.073-1.007Zm15.17-1.114a1.032,1.032,0,0,0-.588-.177c-.82-.073-1.231-.1-2.053-.159l-.161,2.432-.528-.034-.014.328.308.018h0l.318.02q.081-1.209.161-2.432c.822.054,1.233.087,2.053.159a1.032,1.032,0,0,1,.588.177.913.913,0,0,1,.29.381,1.443,1.443,0,0,0-.077-.318.909.909,0,0,0-.3-.391Z" transform="translate(-30.873 -136.974)" fill="#222"/>
    <path id="Path_48" data-name="Path 48" d="M109.54,198.326a.093.093,0,0,1-.016-.022,6.489,6.489,0,0,0-1.467-1.747.081.081,0,0,1-.028-.062c.018-.707-.834-1.1-.844-1.11a.105.105,0,0,1-.03-.022c-.923-.885-2.263-1.007-2.384-1.247a1.288,1.288,0,0,0-.929-.522.28.28,0,0,0-.117.022.232.232,0,0,0-.111.268.081.081,0,0,1-.028.066.076.076,0,0,1-.048.018h-.02a6.744,6.744,0,0,1-1.572-.062c-.584-.073-1.165-.171-1.741-.284-.363-.071-.725-.143-1.084-.23a1.449,1.449,0,0,1-.53-.385,3.306,3.306,0,0,0-.631-.459,3.788,3.788,0,0,0-1.193-.441,3.175,3.175,0,0,0-.56-.05,3,3,0,0,0-1.148.214h0a6.757,6.757,0,0,1-2,.25,13.259,13.259,0,0,1-1.842-.133.576.576,0,0,1-.1-.026c-3.6-1.551-8.152-2.468-10.957,1.146a6.738,6.738,0,0,0-1.253,2.821,9.269,9.269,0,0,0-.109,2.883,10.647,10.647,0,0,1-1.543,6.23,2.649,2.649,0,0,0-.564,1.336h0a2.172,2.172,0,0,0,1.233,1.971,3.276,3.276,0,0,0,1.513.334,3.461,3.461,0,0,0,.425-.018H79.9c.288-.022.963-.075,1.155-.361a.345.345,0,0,0,.028-.306c-.1-.322-.548-.52-.874-.663l-.145-.064a.562.562,0,0,1-.357-.494,1.223,1.223,0,0,1,.556-.971,7.889,7.889,0,0,1,1.163-.564,6.133,6.133,0,0,0,1.41-.748l.016-.012c.244-.189.818-.631.883-.953a.079.079,0,0,1,.077-.062h.014a.079.079,0,0,1,.062.091,9.181,9.181,0,0,0,.145,1.892.071.071,0,0,1,0,.02,9.56,9.56,0,0,1-.161,1.074c-.1.512-.169.881,0,1.106.141.187.463.294,1.007.339s1.068.064,1.509.064a3.8,3.8,0,0,0,1.644-.2.377.377,0,0,0,.143-.353c-.077-.262-.6-.431-.806-.475-.721-.109-.818-.341-.681-1.644a5.9,5.9,0,0,1,1.04-2.525h0c1.072-1.15,1.441-1.209,1.505-1.209h0a.077.077,0,0,1,.062.038.081.081,0,0,1,0,.073,15.879,15.879,0,0,0-.979,4.257,2.656,2.656,0,0,0,.4,1.882c.04.073.079.141.117.2.2.375.55.721,1.779.721.133,0,.278,0,.429-.012,1.549-.081,1.652-.322,1.741-.534a.246.246,0,0,0-.024-.2,1.49,1.49,0,0,0-1.094-.55.745.745,0,0,1-.574-.33.6.6,0,0,1-.026-.488h0a12.573,12.573,0,0,1,2.315-3.425,1.352,1.352,0,0,1,.883-.5.429.429,0,0,1,.254.073c.071.032.26.165.655,1.517a24.442,24.442,0,0,1,.58,2.442c.127.711.353,1.189,1.094,1.376a4.432,4.432,0,0,0,1.007.085h.4l.419.02c.417.022.848.042,1.271.042a.871.871,0,0,0,.733-.264.588.588,0,0,0,.1-.2.449.449,0,0,0-.083-.316.88.88,0,0,0-.59-.4.507.507,0,0,0-.1,0h-.232a1.193,1.193,0,0,1-1.048-.663,3.774,3.774,0,0,1-.109-2.452c.677-3.141,5.182-4.169,5.4-4.169a3.145,3.145,0,0,0,1.378-.459l.2-.1a1.281,1.281,0,0,1,.75-.036,6.248,6.248,0,0,0,.885.1,6.709,6.709,0,0,0,1.036-.044.977.977,0,0,0,.5-.167c.02-.018.046-.083.064-.093a2.1,2.1,0,0,0,.429-.4.522.522,0,0,1,.127-.117,2.121,2.121,0,0,0,.336-.3.558.558,0,0,0-.2-.314Z" transform="translate(-65.149 -175.874)" fill="#222"/>
    <path id="Path_49" data-name="Path 49" d="M104.82,197.072a.04.04,0,1,0,.042.017A.04.04,0,0,0,104.82,197.072Zm2.525,1.636a.072.072,0,0,1-.016-.024,6.559,6.559,0,0,0-1.467-1.713.079.079,0,0,1-.028-.06c.018-.7-.834-1.084-.842-1.086a.084.084,0,0,1-.03-.024,3.931,3.931,0,0,0-1.975-.977.083.083,0,0,1-.032-.016.621.621,0,0,1-.163-.212.83.83,0,0,0-.677-.506.288.288,0,0,0-.117.022.228.228,0,0,0-.113.262.078.078,0,0,1-.079.081H101.8a8.509,8.509,0,0,1-2.053-.113c-.729-.1-1.457-.224-2.182-.353a3.011,3.011,0,0,1-.415-.083,6.7,6.7,0,0,1-1.314-.83,3.931,3.931,0,0,0-1.245-.465,3.223,3.223,0,0,0-.57-.05,3.051,3.051,0,0,0-1.148.2h0a6.881,6.881,0,0,1-2,.244,13.391,13.391,0,0,1-1.737-.109l-.163-.044c-3.6-1.529-8.184-2.434-11,1.122a6.544,6.544,0,0,0-1.253,2.76,8.9,8.9,0,0,0-.109,2.821,10.3,10.3,0,0,1-1.541,6.105,2.561,2.561,0,0,0-.564,1.31h0c-.147,1.245,1.219,1.924,1.233,1.932a3.339,3.339,0,0,0,1.513.326,3.891,3.891,0,0,0,.425-.016h.036c.288-.022.963-.073,1.153-.353a.33.33,0,0,0,.028-.3c-.1-.316-.546-.51-.874-.649l-.145-.064a.55.55,0,0,1-.357-.484,1.193,1.193,0,0,1,.556-.951,7.868,7.868,0,0,1,1.163-.554,6.186,6.186,0,0,0,1.41-.731l.016-.012c.244-.185.818-.619.883-.935a.077.077,0,0,1,.075-.062h.014a.079.079,0,0,1,.062.089,8.852,8.852,0,0,0,.145,1.856.08.08,0,0,1,0,.02,9.294,9.294,0,0,1-.161,1.054c-.1.5-.169.862,0,1.084.141.183.463.29,1.007.33s1.068.062,1.507.062a3.747,3.747,0,0,0,1.646-.2.363.363,0,0,0,.143-.345c-.075-.256-.6-.423-.806-.465-.721-.107-.818-.334-.681-1.612a5.788,5.788,0,0,1,1.04-2.474h0c1.072-1.126,1.443-1.183,1.505-1.183h0a.073.073,0,0,1,.062.109,15.287,15.287,0,0,0-.979,4.173,2.563,2.563,0,0,0,.4,1.844c.04.071.081.137.117.2.2.367.55.705,1.779.705.133,0,.278,0,.429-.012,1.549-.079,1.652-.316,1.741-.524a.236.236,0,0,0-.024-.2,1.477,1.477,0,0,0-1.094-.538.745.745,0,0,1-.574-.324.592.592,0,0,1-.028-.478h0a12.291,12.291,0,0,1,2.315-3.365,1.328,1.328,0,0,1,.883-.49.45.45,0,0,1,.256.071c.069.032.258.163.655,1.487a23.625,23.625,0,0,1,.58,2.394c.125.7.353,1.167,1.094,1.348a4.508,4.508,0,0,0,1.007.083h.4l.419.02c.417.02.848.042,1.271.042a.882.882,0,0,0,.733-.258.572.572,0,0,0,.1-.2.433.433,0,0,0-.083-.31.885.885,0,0,0-.59-.387.576.576,0,0,0-.1,0h-.25a1.2,1.2,0,0,1-1.048-.651,3.624,3.624,0,0,1-.109-2.4c.677-3.069,5.182-4.082,5.406-4.082a3.2,3.2,0,0,0,1.376-.449l.2-.1a1.654,1.654,0,0,1,.713-.135,2.539,2.539,0,0,1,.417.032,6.342,6.342,0,0,0,1.219.145c.717,0,.864-.224.889-.282a2.942,2.942,0,0,1-.828-.077,1.491,1.491,0,0,1-.5-.228c-.071-.056-.2-.22-.032-.27a.153.153,0,0,1,.125.032,1.894,1.894,0,0,0,.391.234,2.442,2.442,0,0,0,1.169.135.4.4,0,0,0,.1-.22.091.091,0,0,1,0-.028c-.417-.183-.433-.435-.433-.435-.044-.189.417-.222.417-.222s.336.064.365.23c.016.087-.127.242-.23.341a2.16,2.16,0,0,0,.336-.3.546.546,0,0,0-.167-.284ZM102.122,195c-.135.135-.236-.633,0-.621,0,0,.391.2.391.486a.635.635,0,0,0-.387.135Zm2.98,2.16c-.044.177-.838.155-.685-.133a.455.455,0,0,1,.641-.177.28.28,0,0,1,.048.31Zm-.191-.238a.064.064,0,1,0,.071.064.069.069,0,0,0-.066-.064Z" transform="translate(-63.4 -176.281)" fill="#fff"/>
    <path id="Path_50" data-name="Path 50" d="M69.48,122.887a.6.6,0,0,0-.111-.183.51.51,0,0,0-.157-.119.59.59,0,0,0-.2-.054.792.792,0,0,0-.218,0,.721.721,0,0,0-.32.127.653.653,0,0,0-.2.23.822.822,0,0,0-.085.3,1.209,1.209,0,0,0,.014.326,1.378,1.378,0,0,0,.1.334.83.83,0,0,0,.179.258.657.657,0,0,0,.258.153.717.717,0,0,0,.338.016.651.651,0,0,0,.242-.087.572.572,0,0,0,.167-.157.6.6,0,0,0,.093-.214.806.806,0,0,0,.014-.252l.284-.046a.981.981,0,0,1-.179.667.911.911,0,0,1-.6.33,1.036,1.036,0,0,1-.445-.012.883.883,0,0,1-.347-.181,1.008,1.008,0,0,1-.246-.316,1.5,1.5,0,0,1-.139-.421,1.41,1.41,0,0,1-.01-.445,1.048,1.048,0,0,1,.133-.387.915.915,0,0,1,.278-.294,1.064,1.064,0,0,1,.429-.163,1.138,1.138,0,0,1,.328,0,.879.879,0,0,1,.292.087.744.744,0,0,1,.232.183.784.784,0,0,1,.149.282Z" transform="translate(-58.13 -121.004)" fill="#244093"/>
    <path id="Path_51" data-name="Path 51" d="M79.463,121.785a1.356,1.356,0,0,1,0-.427,1.046,1.046,0,0,1,.141-.385.959.959,0,0,1,.288-.294,1.161,1.161,0,0,1,.907-.129.955.955,0,0,1,.359.2,1.044,1.044,0,0,1,.244.33,1.352,1.352,0,0,1,.121.4,1.374,1.374,0,0,1,0,.427,1.07,1.07,0,0,1-.145.381.957.957,0,0,1-.286.29,1.138,1.138,0,0,1-.889.127.955.955,0,0,1-.357-.2,1.066,1.066,0,0,1-.246-.324,1.376,1.376,0,0,1-.137-.4Zm.286-.044a1.223,1.223,0,0,0,.089.31.873.873,0,0,0,.173.262.681.681,0,0,0,.26.167.788.788,0,0,0,.669-.095.683.683,0,0,0,.2-.232.87.87,0,0,0,.093-.3,1.209,1.209,0,0,0-.085-.635.858.858,0,0,0-.171-.264.679.679,0,0,0-.262-.169.806.806,0,0,0-.679.1.681.681,0,0,0-.2.236.858.858,0,0,0-.091.3A1.209,1.209,0,0,0,79.749,121.741Z" transform="translate(-67.354 -119.59)" fill="#244093"/>
    <path id="Path_52" data-name="Path 52" d="M91.594,120.17a1.356,1.356,0,0,1,.012-.429,1.048,1.048,0,0,1,.151-.381.955.955,0,0,1,.3-.286,1.157,1.157,0,0,1,.911-.107.953.953,0,0,1,.353.2,1.046,1.046,0,0,1,.234.336,1.352,1.352,0,0,1,.111.4,1.376,1.376,0,0,1-.02.427,1.07,1.07,0,0,1-.155.377.957.957,0,0,1-.292.282,1.138,1.138,0,0,1-.891.1.955.955,0,0,1-.351-.2,1.068,1.068,0,0,1-.238-.33A1.37,1.37,0,0,1,91.594,120.17Zm.286-.036a1.227,1.227,0,0,0,.081.312.87.87,0,0,0,.167.266.681.681,0,0,0,.256.173.79.79,0,0,0,.671-.079.683.683,0,0,0,.2-.228.87.87,0,0,0,.1-.3,1.209,1.209,0,0,0-.071-.637.854.854,0,0,0-.165-.268.679.679,0,0,0-.256-.175.806.806,0,0,0-.683.081.681.681,0,0,0-.2.23.856.856,0,0,0-.1.3,1.209,1.209,0,0,0,0,.332Z" transform="translate(-77.045 -118.32)" fill="#244093"/>
    <path id="Path_53" data-name="Path 53" d="M103.86,118.268l.29-.028.185,1.894c.453-.044.681-.064,1.134-.1l.02.24c-.566.048-.85.075-1.41.133Z" transform="translate(-86.848 -117.778)" fill="#244093"/>
    <path id="Path_54" data-name="Path 54" d="M118.05,116.944l.794-.054h.312a1.283,1.283,0,0,1,.151.014.4.4,0,0,1,.123.038.564.564,0,0,1,.2.165.475.475,0,0,1,.091.266.514.514,0,0,1-.069.3.508.508,0,0,1-.226.2h0a.5.5,0,0,1,.316.163.534.534,0,0,1,.125.33.639.639,0,0,1-.03.23.576.576,0,0,1-.115.2.631.631,0,0,1-.2.149.709.709,0,0,1-.278.069c-.415.024-.621.038-1.036.069Zm.355.9.578-.038a.58.58,0,0,0,.349-.107.308.308,0,0,0,.093-.262.375.375,0,0,0-.046-.175.256.256,0,0,0-.107-.1.4.4,0,0,0-.151-.038,1.421,1.421,0,0,0-.179,0l-.582.038Zm.066.979.715-.046a.4.4,0,0,0,.288-.121.371.371,0,0,0,.093-.286.347.347,0,0,0-.05-.171.3.3,0,0,0-.111-.1.441.441,0,0,0-.153-.048.926.926,0,0,0-.177,0l-.659.042Z" transform="translate(-98.179 -116.7)" fill="#244093"/>
    <path id="Path_55" data-name="Path 55" d="M129.25,116.26c.6-.028.909-.04,1.515-.06v.24c-.488.016-.733.026-1.221.048l.038.679c.451-.02.677-.03,1.13-.044v.24c-.451.014-.675.024-1.126.044l.032.741c.484-.022.725-.03,1.209-.046v.24c-.6.02-.895.032-1.491.06Z" transform="translate(-107.123 -116.149)" fill="#244093"/>
    <path id="Path_56" data-name="Path 56" d="M139.33,116c.6-.016.909-.022,1.515-.03v.24c-.488,0-.733,0-1.221.022l.016.681c.451-.01.679-.016,1.13-.02v.24c-.451,0-.677,0-1.128.02,0,.3.01.445.018.741.484-.012.725-.016,1.209-.022v.24c-.6,0-.895.012-1.493.028Z" transform="translate(-115.172 -115.965)" fill="#244093"/>
    <path id="Path_57" data-name="Path 57" d="M149.42,115.946h1.034a.725.725,0,0,1,.488.155.51.51,0,0,1,.173.4.643.643,0,0,1-.093.341.465.465,0,0,1-.29.2h0a.385.385,0,0,1,.153.06.355.355,0,0,1,.095.1.4.4,0,0,1,.05.131,1.353,1.353,0,0,1,.022.151v.161a.594.594,0,0,0,.014.159.881.881,0,0,0,.032.147.367.367,0,0,0,.066.125h-.318a.179.179,0,0,1-.04-.091.91.91,0,0,1-.012-.127v-.151a1.178,1.178,0,0,0-.016-.159.722.722,0,0,0-.028-.149.345.345,0,0,0-.056-.123.282.282,0,0,0-.1-.085.389.389,0,0,0-.169-.032h-.705v.915h-.286C149.428,117.232,149.426,116.8,149.42,115.946Zm.9.985a1.189,1.189,0,0,0,.2-.014.425.425,0,0,0,.161-.058.326.326,0,0,0,.111-.117.389.389,0,0,0,.042-.189.341.341,0,0,0-.387-.369h-.725v.748h.6Z" transform="translate(-123.229 -115.945)" fill="#244093"/>
  </g>
</svg>
